<svg width="1193" height="277" viewBox="0 0 1193 277" fill="none" xmlns="http://www.w3.org/2000/svg">
<path d="M1192.22 206.433C1186.01 211.006 1181.11 212.965 1176.22 212.965C1168.05 212.965 1163.8 208.719 1163.8 200.228V168.548H1192.22V149.605H1163.8V126.09L1139.96 131.968V149.605H1127.55V168.548H1139.96V202.187C1139.96 222.763 1149.76 233.541 1168.05 233.541C1175.89 233.541 1183.07 231.581 1189.28 227.989L1192.87 206.76L1192.22 206.433Z" fill="white"/>
<path d="M1098.16 181.285C1090.97 179.652 1086.4 178.019 1084.11 176.712C1081.83 175.733 1080.85 174.1 1080.85 171.813C1080.85 168.221 1085.09 165.608 1091.95 165.608C1100.44 165.608 1111.55 169.201 1121.35 175.406L1121.67 175.079V154.83C1112.85 150.258 1103.06 147.645 1092.93 147.645C1071.7 147.645 1058.31 157.77 1058.31 173.12C1058.31 185.857 1065.5 193.042 1087.05 198.595C1094.24 200.554 1099.14 202.187 1101.42 203.494C1103.71 204.8 1105.02 206.433 1105.02 208.719C1105.02 212.638 1100.44 215.251 1093.59 215.251C1082.15 215.251 1069.42 210.352 1057.01 201.861L1056.68 202.187L1059.95 224.069C1070.4 230.275 1080.52 233.214 1092.28 233.214C1102.73 233.214 1111.55 230.928 1118.08 226.029C1124.61 221.457 1127.88 214.925 1127.88 207.413C1127.88 200.554 1125.92 195.329 1121.67 191.083C1116.77 187.49 1109.26 183.898 1098.16 181.285Z" fill="white"/>
<path d="M1025.33 204.147C1018.47 210.026 1013.57 212.312 1007.69 212.312C998.871 212.312 993.972 206.76 993.972 196.962V149.605H969.477V201.861C969.477 221.457 980.255 233.541 997.238 233.541C1008.67 233.541 1017.16 228.642 1025.98 216.884V231.581H1049.49V149.278H1025.33V204.147Z" fill="white"/>
<path d="M956.74 148.298C947.921 148.298 941.063 153.85 929.632 169.854V148.625L905.79 151.564V231.908H930.285V183.898C940.736 176.712 948.901 174.099 957.72 174.099C959.679 174.099 961.639 174.1 963.598 174.426L962.292 149.278C959.679 148.625 958.373 148.298 956.74 148.298Z" fill="white"/>
<path d="M909.056 119.231H802.911V142.419H843.083V231.908H868.884V142.419H909.056V119.231Z" fill="white"/>
<path d="M771.884 206.76C765.352 211.332 759.8 212.965 753.921 212.965C742.163 212.965 733.672 204.147 733.672 191.083C733.672 177.693 742.49 168.548 755.227 168.548C761.106 168.548 766.005 169.854 771.557 173.12L771.884 206.76ZM771.884 156.464C765.025 151.238 757.84 148.299 750.002 148.299C738.897 148.299 729.426 152.544 721.914 160.709C714.076 169.201 710.483 179.652 710.483 192.39C710.483 204.147 713.749 213.618 720.934 221.457C727.793 229.295 735.958 233.214 746.083 233.214C756.534 233.214 764.699 229.295 772.864 220.15V231.581H796.706V109.76L772.537 116.292V156.464H771.884Z" fill="white"/>
<path d="M675.211 147.645C664.106 147.645 655.288 152.544 646.47 164.302V148.298L622.628 151.564V231.908H647.123V177.039C653.982 171.16 658.554 169.201 664.759 169.201C673.578 169.201 678.477 174.753 678.477 184.551V231.908H702.645V179.652C702.972 160.056 692.194 147.645 675.211 147.645Z" fill="white"/>
<path d="M571.025 213.292C559.268 213.292 550.449 203.494 550.449 190.756C550.449 177.692 559.268 168.221 571.352 168.221C583.436 168.221 591.928 177.692 591.928 190.43C591.601 203.494 583.109 213.292 571.025 213.292ZM571.025 147.319C558.288 147.319 547.837 151.564 539.018 159.729C530.527 168.221 526.281 178.672 526.281 190.756C526.281 202.841 530.527 213.292 538.692 221.457C546.857 229.948 557.635 233.868 570.699 233.868C583.436 233.868 593.887 229.622 602.705 221.13C611.197 212.639 615.443 202.187 615.443 190.103C615.443 178.019 611.197 167.568 603.032 159.403C594.54 151.564 584.089 147.319 571.025 147.319Z" fill="white"/>
<path d="M505.379 149.605L486.763 201.208L466.513 149.605H440.059L474.352 228.315C470.759 237.134 465.207 241.053 456.389 241.053C451.816 241.053 447.571 240.073 442.672 237.46L442.345 237.787L446.917 259.996C451.49 261.955 456.062 262.608 460.961 262.608C477.944 262.608 490.029 252.81 497.867 232.561L530.854 149.605H505.379Z" fill="white"/>
<path d="M404.786 164.955C414.257 164.955 420.463 172.14 421.769 183.571H387.149C388.129 172.467 395.314 164.955 404.786 164.955ZM411.971 214.272C398.58 214.272 389.762 208.066 387.149 196.962H443.978C444.304 194.349 444.304 191.409 444.304 190.103C444.304 177.366 440.712 166.914 433.853 158.749C426.668 150.911 417.197 146.992 405.112 146.992C393.028 146.992 383.23 151.238 375.392 159.403C367.553 167.894 363.634 178.019 363.634 190.103C363.634 203.167 367.553 213.618 375.718 221.457C383.557 229.295 394.335 233.214 407.725 233.214C418.176 233.214 426.341 231.581 436.139 226.682L442.671 206.107L442.345 205.78C431.567 211.659 421.769 214.272 411.971 214.272Z" fill="white"/>
<path d="M313.991 211.985H298.641V183.898H313.338C325.748 183.898 332.607 188.797 332.607 197.941C332.607 206.433 325.422 211.985 313.991 211.985ZM298.641 139.153H312.684C322.809 139.153 329.014 143.726 329.014 151.891C329.014 160.382 322.156 165.608 311.705 165.608H298.641V139.153ZM337.833 173.12C348.284 167.894 353.836 159.403 353.836 148.951C353.836 130.335 339.792 119.231 315.95 119.231H274.472V231.908H316.277C329.014 231.908 339.139 228.968 346.977 223.09C354.489 217.211 358.408 209.372 358.408 199.574C358.082 187.164 351.223 178.019 337.833 173.12Z" fill="white"/>
<path d="M134.361 150.258V200.881C134.361 202.841 132.728 204.147 131.095 204.147H74.2667C73.6135 204.147 72.9603 203.494 72.9603 202.841V150.258C72.9603 148.298 74.5933 146.992 76.2263 146.992H130.768C132.728 146.992 134.361 148.298 134.361 150.258ZM74.2667 74.4867C73.6135 74.4867 72.9603 73.8335 72.9603 73.1803V0.675162L72.6337 0.0219727H71.9805L47.4855 24.517C46.5057 25.4968 45.8525 27.4564 45.8525 28.4362V100.615L46.5057 101.268H133.381C134.034 101.268 134.688 101.921 134.688 102.574V115.638C134.688 117.598 133.055 118.904 131.422 118.904H46.5057L46.1791 119.231L45.8525 119.558V211.659C45.8525 222.11 54.3441 230.928 65.1219 230.928H131.422C133.381 230.928 134.688 232.561 134.688 234.194V247.258C134.688 247.911 134.034 248.565 133.381 248.565H64.7953C44.5461 248.565 27.8895 231.908 27.8895 211.659V45.0927L27.5629 44.4395H26.9097L2.08808 69.9143C1.10828 70.8941 0.455078 72.8537 0.455078 73.8335V220.477C0.455078 251.504 25.6033 276.979 56.6303 276.979H161.142L161.795 276.325V75.4665L161.142 74.8133L74.2667 74.4867Z" fill="white"/>
<path d="M205.233 113.679L180.738 89.1836H180.085L179.758 89.8368V261.955L180.085 262.608H180.411L180.738 262.282L205.233 237.787C206.213 236.807 206.866 234.847 206.866 233.868V117.924C206.866 116.291 206.213 114.332 205.233 113.679Z" fill="white"/>
</svg>
