<svg width="1000" height="157" viewBox="0 0 1000 157" fill="none" xmlns="http://www.w3.org/2000/svg">
<path d="M399.049 57.4425C372.248 57.4425 352.725 76.1178 352.725 104.035C352.725 131.939 373.243 150.601 402.911 150.601C411.576 150.601 419.689 149.094 426.591 146.214L439.239 125.131L437.557 124.229C426.685 129.919 415.251 132.853 404.916 132.853C389.618 132.853 376.393 125.076 374.899 111.783H442.549V105.689C442.546 74.8129 423.818 57.4425 399.049 57.4425V57.4425ZM374.898 95.1563C376.566 82.3879 384.692 74.0876 397.824 74.0876C411.695 74.0876 420.199 82.2135 420.373 95.1563H374.898ZM859.886 57.4425C833.057 57.4425 813.549 76.1178 813.549 104.035C813.549 131.939 834.08 150.601 863.747 150.601C872.399 150.601 880.51 149.094 887.399 146.214L900.06 125.131L898.392 124.229C887.521 129.919 876.071 132.853 865.724 132.853C850.441 132.853 837.228 125.076 835.735 111.783H903.37C906.317 77.0201 887.629 57.4425 859.886 57.4425V57.4425ZM835.735 95.1563C837.376 82.3879 845.531 74.0876 858.635 74.0876C872.506 74.0876 881.023 82.2135 881.197 95.1563H835.735ZM549.922 57.4425C523.134 57.4425 503.616 76.1178 503.616 104.035C503.616 131.939 524.131 150.601 553.783 150.601C562.474 150.601 570.575 149.094 577.489 146.214L590.11 125.131L588.428 124.229C577.571 129.919 566.135 132.853 555.802 132.853C540.503 132.853 527.277 125.076 525.798 111.783H593.447C596.381 77.0201 577.693 57.4425 549.922 57.4425V57.4425ZM525.799 95.1563C527.454 82.3879 535.595 74.0876 548.699 74.0876C562.57 74.0876 571.087 82.2135 571.261 95.1563H525.799ZM91.6281 79.441V79.0633C105.123 75.0017 114.353 65.2208 114.353 50.4196C114.353 26.5785 94.0098 17.5242 74.2722 17.5242H26.4418V17.511H7.40454V19.4625L14.1179 25.1674C22.1782 31.7339 23.2261 33.0112 23.2261 38.9443V148.397H70.3837C95.1271 148.397 119.91 139.517 119.91 111.047C119.91 94.2409 108.057 81.285 91.6281 79.441V79.441ZM46.5295 37.4899H65.7425C78.7391 37.4899 82.7626 39.2787 86.7036 43.019C89.6911 45.8584 91.0629 49.76 91.076 54.3068C91.076 58.531 89.6229 62.312 86.541 65.2457C82.6931 68.9323 77.4184 70.7487 67.7713 70.7487H46.5295V37.4899V37.4899ZM67.9628 128.428H46.5295V90.7157H68.89C87.7397 90.7157 96.6196 95.5183 96.6196 109.202C96.6196 126.397 79.964 128.428 67.9628 128.428ZM163.946 29.5385C163.946 37.1135 157.65 42.8446 149.523 42.8446C141.383 42.8446 135.477 36.5483 135.477 29.5385C135.477 22.5012 141.383 16.2179 149.523 16.2179C157.649 16.2192 163.946 21.9504 163.946 29.5385ZM126.677 59.676H160.797V148.394H138.597V78.5938H138.584C138.584 71.2483 138.18 70.0772 130.215 63.929L126.677 61.1304V59.676V59.676ZM303.253 13.6632L310.194 18.1445C316.531 22.1667 317.487 24.1038 317.487 29.7418V70.9388H316.935C312.32 65.2208 303.44 57.4438 286.811 57.4438C261.476 57.4438 243.918 77.7742 243.918 104.036C243.918 130.272 260.386 150.602 287.739 150.602C300.117 150.602 311.769 145.799 318.24 135.089H318.603L320.93 148.395H339.672V12.0344H303.251V13.6632H303.253ZM292.167 130.649C275.901 130.649 266.092 117.893 266.092 104.036C266.092 90.1649 275.901 77.4096 292.167 77.4096C308.447 77.4096 318.241 90.1649 318.241 104.036C318.241 117.895 308.446 130.649 292.167 130.649ZM763.337 13.6632L766.419 15.7222C777.114 22.4762 778.433 24.4408 778.433 35.9975V70.9388H777.881C773.24 65.2208 764.373 57.4438 747.757 57.4438C722.422 57.4438 704.864 77.7742 704.864 104.036C704.864 130.272 721.319 150.602 748.659 150.602C761.05 150.602 772.702 145.799 779.16 135.089H779.523L781.877 148.395H800.593V12.0344H763.338V13.6632H763.337ZM753.097 130.649C736.844 130.649 727.037 117.893 727.037 104.036C727.037 90.1649 736.845 77.4096 753.097 77.4096C769.363 77.4096 779.159 90.1649 779.159 104.036C779.159 117.895 769.365 130.649 753.097 130.649ZM974.476 58.7356V80.182C970.777 79.2535 967.279 78.5138 963.754 78.5138C942.871 78.5138 939.911 96.0717 939.911 100.889V148.397H917.74V82.8325C917.74 71.6654 917.147 69.9972 908.119 64.2792L902.564 60.6058L902.495 59.6235H939.911V73.7244H940.302C945.092 63.5526 954.887 57.4438 966.538 57.4438C969.309 57.4425 971.893 58.0078 974.476 58.7356V58.7356ZM481.954 59.2996H502.554V78.2306H481.954V148.395H459.687V85.8856C459.687 78.4456 458.193 76.8168 449.367 69.8346L438.066 60.6451V59.2996H459.687V43.1148C459.687 19.0323 475.388 3.76033 509.384 10.5419L514.523 29.3234L513.461 30.1982C495.704 23.2159 481.954 27.6683 481.954 43.1817V59.2996V59.2996ZM692.176 92.3708V148.395H669.99V99.0304C669.99 89.2495 667.514 77.4096 651.975 77.4096C637.376 77.4096 631.645 88.1334 631.645 99.9589V148.395H609.486V82.8325C609.486 71.6654 608.881 69.9972 599.852 64.2792L594.297 60.6058V59.6235H611.625V59.6773H630.543V73.1854H630.905C638.211 62.3277 649.312 57.4438 659.132 57.4438C680.094 57.4425 692.176 71.7991 692.176 92.3708ZM237.043 130.569L237.77 131.026L226.764 148.664C208.682 153.561 188.366 148.341 188.366 119.348V78.5125L188.338 83.3833C188.338 77.6653 187.41 77.9473 174.965 67.6956L166.919 60.7396V59.676H188.46L196.56 33.9647H210.633V59.676H234.352V78.5125H210.633V118.729C210.633 134.752 221.584 135.115 237.043 130.569V130.569ZM984.904 9.37078C986.774 10.1511 988.402 11.2409 989.788 12.6337C991.161 14.033 992.251 15.6606 993.031 17.5373C993.824 19.4218 994.215 21.4389 994.215 23.5857C994.215 25.7654 993.824 27.7903 993.031 29.6473C992.251 31.5175 991.161 33.1385 989.788 34.5168C988.402 35.8965 986.774 36.9797 984.904 37.7601C983.019 38.5469 980.989 38.9443 978.81 38.9443C976.63 38.9443 974.598 38.5469 972.728 37.7601C970.857 36.9797 969.216 35.8965 967.843 34.5168C966.457 33.1385 965.381 31.5162 964.588 29.6473C963.808 27.7903 963.417 25.7654 963.417 23.5857C963.417 21.4389 963.808 19.4218 964.588 17.5373C965.381 15.6606 966.458 14.033 967.843 12.6337C969.216 11.2409 970.857 10.1511 972.728 9.37078C974.598 8.5839 976.63 8.18652 978.81 8.18652C980.989 8.18652 983.021 8.5839 984.904 9.37078V9.37078ZM973.616 11.4232C972.028 12.1091 970.656 13.0442 969.498 14.2284C968.341 15.4193 967.427 16.812 966.781 18.4055C966.136 20.0133 965.813 21.7353 965.813 23.5857C965.813 25.4349 966.136 27.1582 966.781 28.7582C967.427 30.366 968.341 31.7588 969.498 32.9365C970.656 34.1339 972.028 35.0689 973.616 35.7614C975.204 36.4473 976.939 36.7909 978.81 36.7909C980.652 36.7909 982.375 36.4473 983.975 35.7614C985.549 35.0689 986.922 34.1339 988.093 32.9365C989.25 31.7601 990.151 30.3673 990.811 28.7582C991.484 27.1569 991.821 25.4349 991.821 23.5857C991.821 21.7353 991.484 20.0133 990.811 18.4055C990.151 16.812 989.25 15.4193 988.093 14.2284C986.922 13.0442 985.55 12.1091 983.975 11.4232C982.374 10.7242 980.652 10.3806 978.81 10.3806C976.939 10.3806 975.204 10.7229 973.616 11.4232V11.4232ZM973.225 32.4853V14.6848H980.048C982.079 14.6848 983.531 15.1019 984.459 15.9491C985.388 16.7897 985.846 18.0146 985.846 19.6094C985.846 20.3831 985.725 21.0625 985.495 21.6408C985.267 22.2192 984.943 22.7097 984.527 23.1136C984.11 23.511 983.64 23.8271 983.101 24.0631C982.55 24.2913 981.983 24.4736 981.379 24.5746L986.68 32.4853H984.109L979.105 24.5746H975.418V32.4853H973.225V32.4853ZM980.276 22.6507C980.921 22.61 981.514 22.4959 981.998 22.3005C982.495 22.1051 982.9 21.7956 983.208 21.372C983.505 20.9418 983.653 20.3635 983.653 19.6094C983.653 18.9773 983.531 18.4658 983.303 18.0815C983.073 17.692 982.75 17.3825 982.361 17.1465C981.956 16.9183 981.514 16.7491 981.001 16.6756C980.504 16.5891 979.979 16.5484 979.442 16.5484H975.419V22.7176H978.311C978.971 22.7176 979.63 22.6979 980.276 22.6507V22.6507Z" fill="white"/>
</svg>
