<svg width="1000" height="142" viewBox="0 0 1000 142" fill="none" xmlns="http://www.w3.org/2000/svg">
<g clip-path="url(#clip0)">
<path d="M104.637 11.0382L79.0198 5.02434V49.9763C78.7365 54.3872 77.1488 58.614 74.4588 62.1183L65.7168 72.8139L62.5241 69.0076L70.1258 59.6442C72.2082 56.8229 73.4591 53.4736 73.7366 49.9763V3.57796L60.1296 0.266509C59.2296 0.0799156 58.3121 -0.00940741 57.393 7.19188e-05C56.4614 -0.00754859 55.5316 0.081742 54.6184 0.266509L41.2775 3.50183V47.8828C41.5361 51.1071 42.6951 54.1936 44.6222 56.7895L77.9935 97.2881C80.9059 101.013 82.6043 105.544 82.8586 110.267V127.7L109.046 110.458C110.832 109.339 112.305 107.785 113.329 105.941C114.353 104.097 114.893 102.024 114.9 99.9144V23.3325C114.879 20.4091 113.844 17.584 111.972 15.341C110.1 13.098 107.507 11.5769 104.637 11.0382" fill="white"/>
<path d="M70.2395 101.361L36.8301 60.9002C33.9234 57.158 32.2262 52.6166 31.9651 47.8828V5.78552L10.2243 11.0382C7.35506 11.5768 4.76219 13.098 2.88994 15.3409C1.01769 17.5839 -0.0173958 20.4091 -0.0379639 23.3324V99.9144C-0.0317866 102.02 0.504306 104.089 1.52074 105.932C2.53718 107.775 4.00115 109.332 5.77732 110.458V110.458L32.3832 127.852V110.267C32.6184 105.842 34.1668 101.588 36.8301 98.0493L48.5747 83.8139L51.7674 87.6201L41.0871 100.561C38.6165 103.568 37.2863 109.126 37.2863 118.07V131.24L49.905 139.576C52.0699 141.083 54.6422 141.893 57.2786 141.897C59.9033 141.892 62.4633 141.082 64.6143 139.576L73.3942 133.828V110.229C73.1356 107.005 71.9766 103.919 70.0495 101.323" fill="white"/>
<path d="M100.608 126.178C100.951 125.426 101.428 124.742 102.014 124.16C102.606 123.588 103.303 123.136 104.066 122.828C104.845 122.489 105.688 122.32 106.537 122.333C107.412 122.384 108.266 122.617 109.046 123.018C109.793 123.336 110.475 123.787 111.06 124.351C111.635 124.934 112.099 125.618 112.428 126.368C112.776 127.16 112.957 128.015 112.96 128.88C112.964 129.77 112.783 130.652 112.428 131.468C112.099 132.219 111.635 132.902 111.06 133.486C110.486 134.062 109.8 134.515 109.046 134.818C108.252 135.154 107.398 135.322 106.537 135.313C105.688 135.326 104.845 135.157 104.066 134.818C103.296 134.525 102.596 134.07 102.014 133.486C101.428 132.904 100.951 132.22 100.608 131.468C100.265 130.649 100.097 129.768 100.114 128.88C100.077 127.954 100.246 127.031 100.608 126.178ZM101.672 130.897C101.925 131.534 102.299 132.116 102.774 132.61C103.257 133.1 103.823 133.5 104.447 133.79C105.11 134.064 105.82 134.206 106.537 134.209C107.255 134.21 107.965 134.068 108.628 133.79C109.251 133.5 109.817 133.1 110.3 132.61C110.775 132.116 111.149 131.534 111.402 130.897C111.667 130.192 111.796 129.443 111.782 128.69C111.797 127.989 111.674 127.292 111.42 126.639C111.165 125.986 110.785 125.389 110.3 124.884C109.826 124.393 109.257 124.005 108.628 123.742C107.965 123.464 107.255 123.322 106.537 123.323C105.82 123.326 105.11 123.468 104.447 123.742C103.817 124.005 103.248 124.393 102.774 124.884C101.805 125.914 101.262 127.274 101.254 128.69C101.254 129.445 101.395 130.194 101.672 130.897ZM106.955 124.998C107.654 124.956 108.348 125.143 108.932 125.531C109.148 125.733 109.316 125.982 109.421 126.259C109.526 126.536 109.567 126.834 109.54 127.129C109.57 127.401 109.538 127.676 109.446 127.933C109.354 128.191 109.204 128.423 109.008 128.614C108.598 128.926 108.112 129.123 107.601 129.185L109.73 132.458H108.475L106.461 129.261H105.245V132.458H104.105V124.845L106.955 124.998ZM106.423 128.309H107.183C107.384 128.349 107.591 128.349 107.791 128.309C107.998 128.226 108.17 128.076 108.28 127.882C108.391 127.689 108.433 127.464 108.399 127.243C108.466 127.046 108.466 126.832 108.399 126.634C108.312 126.483 108.179 126.363 108.019 126.292C107.845 126.248 107.662 126.248 107.487 126.292H105.245V128.652L106.423 128.309Z" fill="#69D03C"/>
<path d="M764.044 30.2598H761.383C760.82 30.2957 760.29 30.5358 759.891 30.9351C759.492 31.3345 759.253 31.8657 759.217 32.4293V86.0976C759.232 87.0011 759.056 87.8975 758.7 88.7279C758.345 89.5583 757.817 90.3037 757.153 90.9151C756.488 91.5265 755.702 91.9899 754.846 92.2749C753.99 92.5598 753.083 92.6598 752.185 92.5683C751.265 92.554 750.358 92.3428 749.525 91.949C748.693 91.5551 747.954 90.9876 747.358 90.2845L696.959 34.9795C695.692 33.5207 694.127 32.3513 692.369 31.5502C690.612 30.7491 688.704 30.335 686.773 30.3359C682.891 30.5043 679.232 32.1959 676.586 35.0451C673.94 37.8942 672.52 41.6718 672.634 45.5609V97.5545C672.688 98.1208 672.945 98.6483 673.357 99.04C673.769 99.4317 674.309 99.6611 674.876 99.686H677.537C678.106 99.6492 678.641 99.4037 679.041 98.9964C679.441 98.5892 679.676 98.0487 679.703 97.4783V45.599C679.61 44.5867 679.72 43.5658 680.026 42.5967C680.333 41.6276 680.831 40.7298 681.49 39.9564C682.149 39.183 682.956 38.5496 683.863 38.0936C684.77 37.6376 685.76 37.3682 686.773 37.3014C687.692 37.3252 688.596 37.5406 689.427 37.9338C690.258 38.327 690.998 38.8894 691.6 39.5851L741.999 95.0423C743.267 96.4906 744.827 97.6533 746.576 98.4537C748.325 99.2541 750.224 99.6741 752.147 99.686C753.987 99.8083 755.832 99.545 757.565 98.913C759.298 98.2811 760.88 97.2943 762.21 96.0156C763.541 94.737 764.59 93.1946 765.292 91.4869C765.994 89.7792 766.333 87.9437 766.286 86.0976V32.3913C766.24 31.822 765.985 31.2898 765.572 30.8966C765.158 30.5033 764.614 30.2766 764.044 30.2598" fill="white"/>
<path d="M272.672 92.5682H207.297C206.291 92.4964 205.309 92.2246 204.409 91.7689C203.509 91.3132 202.708 90.6825 202.054 89.9138C201.399 89.145 200.904 88.2535 200.597 87.2912C200.29 86.3289 200.178 85.315 200.266 84.3087V45.2945C200.306 43.2089 201.072 41.2028 202.432 39.6232C203.026 38.9299 203.76 38.3711 204.585 37.9839C205.411 37.5967 206.31 37.39 207.221 37.3775H272.672C273.27 37.3878 273.849 37.1621 274.283 36.7491C274.716 36.3361 274.971 35.7689 274.99 35.1698V32.5435C274.943 31.9613 274.677 31.4185 274.248 31.0234C273.818 30.6284 273.255 30.41 272.672 30.412H207.221C205.3 30.4242 203.404 30.8484 201.66 31.6559C199.916 32.4635 198.365 33.6357 197.111 35.0937C194.73 37.8621 193.386 41.3749 193.31 45.028V84.3087C193.177 88.1969 194.584 91.9802 197.226 94.8327C199.868 97.6852 203.53 99.3752 207.411 99.5337H272.786C273.385 99.5247 273.958 99.2875 274.389 98.8703C274.82 98.4532 275.075 97.8874 275.104 97.288V94.6998C275.066 94.1107 274.805 93.5586 274.374 93.1555C273.943 92.7525 273.375 92.5289 272.786 92.5302" fill="white"/>
<path d="M508.4 92.5682H443.026C442.013 92.506 441.023 92.2413 440.114 91.7899C439.205 91.3384 438.395 90.7092 437.733 89.9394C437.07 89.1696 436.568 88.2749 436.257 87.3078C435.945 86.3407 435.83 85.321 435.918 84.3086V32.6577C435.908 32.055 435.665 31.4798 435.239 31.0536C434.814 30.6275 434.239 30.3837 433.638 30.3739H430.977C430.392 30.4032 429.841 30.6567 429.438 31.0819C429.034 31.507 428.81 32.0712 428.811 32.6577V84.3086C428.687 88.2005 430.103 91.9837 432.751 94.835C435.399 97.6864 439.065 99.3751 442.95 99.5337H508.324C508.923 99.5247 509.496 99.2875 509.927 98.8703C510.358 98.4531 510.614 97.8873 510.643 97.288V94.6997C510.596 94.1203 510.338 93.5785 509.917 93.1781C509.496 92.7778 508.942 92.547 508.362 92.5302" fill="white"/>
<path d="M880.806 92.5682H815.432C814.426 92.4963 813.444 92.2246 812.543 91.7689C811.643 91.3131 810.842 90.6825 810.188 89.9137C809.533 89.145 809.038 88.2535 808.731 87.2911C808.424 86.3288 808.312 85.315 808.4 84.3086V45.2944C808.45 43.2041 809.23 41.1974 810.605 39.6231C811.198 38.9299 811.932 38.3711 812.758 37.9839C813.583 37.5967 814.482 37.3899 815.394 37.3774H880.806C881.405 37.3684 881.978 37.1312 882.409 36.7141C882.84 36.2969 883.096 35.7311 883.125 35.1317V32.5435C883.077 31.9577 882.814 31.4106 882.385 31.0093C881.956 30.6081 881.393 30.3815 880.806 30.3739H815.356C813.434 30.3861 811.538 30.8103 809.794 31.6178C808.05 32.4254 806.499 33.5976 805.245 35.0556C802.867 37.8257 801.523 41.3374 801.445 44.9899V84.3086C801.321 88.2005 802.738 91.9837 805.385 94.835C808.033 97.6864 811.699 99.3751 815.584 99.5337H880.958C881.557 99.5247 882.131 99.2875 882.561 98.8703C882.992 98.4531 883.248 97.8873 883.277 97.288V94.6997C883.238 94.1107 882.977 93.5585 882.546 93.1555C882.115 92.7525 881.548 92.5289 880.958 92.5302" fill="white"/>
<path d="M999.924 94.776C999.886 94.187 999.624 93.6348 999.194 93.2318C998.763 92.8288 998.195 92.6052 997.606 92.6064H932.231C931.225 92.5299 930.244 92.2535 929.345 91.7933C928.447 91.333 927.649 90.6982 926.998 89.9258C926.347 89.1534 925.856 88.2589 925.554 87.2945C925.252 86.3301 925.144 85.3152 925.238 84.3088V45.2946C925.307 43.208 926.085 41.2074 927.443 39.6233C928.036 38.93 928.77 38.3712 929.596 37.984C930.421 37.5968 931.32 37.3901 932.231 37.3776H997.682C998.278 37.3598 998.846 37.1197 999.275 36.7043C999.704 36.2889 999.963 35.7282 1000 35.1319V32.5056C999.961 31.92 999.699 31.372 999.267 30.9751C998.835 30.5782 998.268 30.363 997.682 30.3741H932.155C930.234 30.3863 928.338 30.8105 926.594 31.618C924.85 32.4256 923.299 33.5978 922.045 35.0558C919.68 37.834 918.339 41.3406 918.244 44.9901V84.3088C918.121 88.2006 919.537 91.9839 922.185 94.8352C924.833 97.6865 928.498 99.3752 932.384 99.5338H997.758C998.357 99.5249 998.93 99.2876 999.361 98.8705C999.792 98.4533 1000.05 97.8875 1000.08 97.2881L999.924 94.776Z" fill="white"/>
<path d="M354.2 62.8795L315.584 30.8308C315.16 30.5395 314.653 30.3927 314.139 30.4121C313.779 30.4091 313.422 30.4783 313.09 30.6156C312.757 30.7528 312.454 30.9554 312.201 31.2114L310.453 33.2287C310.269 33.4549 310.133 33.7165 310.054 33.9973C309.976 34.278 309.955 34.572 309.994 34.861C310.034 35.15 310.132 35.4279 310.282 35.6774C310.433 35.927 310.633 36.1429 310.871 36.3118L347.967 67.3328V97.3642C347.996 97.9868 348.267 98.5735 348.721 98.9998C349.175 99.4261 349.777 99.6586 350.399 99.648H353.288C353.897 99.639 354.48 99.3978 354.918 98.9735C355.356 98.5492 355.616 97.9737 355.645 97.3642V65.62C355.636 65.0817 355.5 64.553 355.249 64.0769C354.999 63.6007 354.639 63.1905 354.2 62.8795" fill="white"/>
<path d="M393.691 29.3083C393.462 29.0635 393.186 28.8693 392.878 28.7382C392.57 28.6071 392.239 28.542 391.904 28.547C391.417 28.5506 390.942 28.6961 390.536 28.9657L359.901 54.5057C359.472 54.8934 359.2 55.4256 359.137 56.0011C359.073 56.5765 359.224 57.1552 359.559 57.6269L361.573 59.7964C361.797 60.0365 362.068 60.2279 362.369 60.3588C362.67 60.4898 362.994 60.5575 363.322 60.5577C363.809 60.5541 364.284 60.4086 364.69 60.139L395.097 34.7132C395.558 34.3395 395.856 33.8006 395.927 33.2108C395.998 32.6209 395.836 32.0266 395.477 31.554L393.691 29.3083Z" fill="white"/>
<path d="M637.628 96.07L605.359 38.3671C604.016 35.9315 602.045 33.9011 599.652 32.4872C597.259 31.0733 594.531 30.3275 591.752 30.3275C588.974 30.3275 586.246 31.0733 583.853 32.4872C581.46 33.9011 579.489 35.9315 578.145 38.3671L545.876 96.07C545.637 96.446 545.506 96.8804 545.496 97.3261C545.51 97.8894 545.724 98.4294 546.1 98.8482C546.477 99.2671 546.99 99.5373 547.548 99.6098H549.943C550.298 99.6148 550.65 99.5366 550.969 99.3814H551.273C551.498 99.2452 551.692 99.0638 551.843 98.8486V98.8486C551.843 98.8486 582.25 45.5609 584.303 41.983C585.02 40.6556 586.082 39.5469 587.376 38.7742C588.671 38.0015 590.15 37.5936 591.657 37.5936C593.164 37.5936 594.643 38.0015 595.938 38.7742C597.233 39.5469 598.295 40.6556 599.012 41.983C601.216 45.5609 631.433 98.8486 631.433 98.8486C631.598 99.0648 631.805 99.2459 632.041 99.3814H632.307C632.629 99.5293 632.979 99.6071 633.333 99.6098H635.804C636.358 99.5364 636.867 99.2648 637.238 98.8452C637.608 98.4255 637.814 97.886 637.818 97.3261C637.867 96.8979 637.802 96.4645 637.628 96.07Z" fill="white"/>
<path d="M973.28 61.5092H937.856C937.287 61.546 936.752 61.7915 936.352 62.1987C935.952 62.606 935.716 63.1464 935.69 63.7168V66.3431C935.744 66.9094 936.001 67.437 936.413 67.8286C936.825 68.2203 937.364 68.4497 937.932 68.4746H973.318C973.907 68.4556 974.466 68.2129 974.883 67.7958C975.299 67.3787 975.541 66.8185 975.56 66.2289V63.6407C975.505 63.0681 975.243 62.5354 974.823 62.1429C974.403 61.7504 973.854 61.525 973.28 61.5092" fill="white"/>
</g>
<defs>
<clipPath id="clip0">
<rect width="1000" height="141.935" fill="white"/>
</clipPath>
</defs>
</svg>
