<svg width="906" height="255" viewBox="0 0 906 255" fill="none" xmlns="http://www.w3.org/2000/svg">
<g clip-path="url(#clip0)">
<path d="M6.21277 61.0969L111.829 122.194V0L6.21277 61.0969Z" fill="white"/>
<path d="M111.829 122.194V0L217.598 61.0969L111.829 122.194Z" fill="white"/>
<path d="M105.768 255V132.806L0 193.903L105.768 255Z" fill="white"/>
<path d="M105.768 132.806L0 193.903V71.7094L105.768 132.806Z" fill="white"/>
<path d="M223.81 71.7094V193.903L118.042 132.806L223.81 71.7094Z" fill="white"/>
<path d="M223.81 193.903L118.042 132.806V255L223.81 193.903Z" fill="white"/>
<path d="M288.968 73.8318H318.062C331.094 73.8318 343.065 74.4382 354.733 79.2896C375.947 87.9311 388.675 108.246 388.675 134.322C388.675 168.13 368.219 192.235 330.185 192.235H288.817L288.968 73.8318ZM318.214 180.713C340.64 180.713 355.49 178.743 365.946 165.856C372.765 157.669 376.401 146.906 376.401 134.474C376.401 122.497 373.068 111.733 366.552 103.092C355.339 88.3859 338.519 85.2022 312.759 85.2022H300.788V180.562L318.214 180.713Z" fill="white"/>
<path d="M487.625 104.608H498.686V192.235H487.625V177.378C478.078 188.9 466.107 194.509 452.318 194.509C426.709 194.509 407.465 173.285 407.465 148.422C407.465 123.558 427.164 102.637 452.621 102.637C466.865 102.637 478.836 108.701 487.473 120.981V104.608H487.625ZM419.133 148.573C419.133 167.524 433.983 184.2 453.53 184.2C471.562 184.2 488.534 170.707 488.534 148.876C488.534 128.561 473.381 113.249 453.682 113.249C433.528 113.249 419.133 129.774 419.133 148.573Z" fill="white"/>
<path d="M533.084 72.0125H544.297V104.608H562.329V114.462H544.297V192.084H533.084V114.614H517.628V104.608H533.084V72.0125Z" fill="white"/>
<path d="M589.453 117.342C596.12 107.791 603.091 102.333 612.031 102.333C615.668 102.333 619.153 103.395 622.032 105.366L616.122 114.917C614.304 113.855 612.334 113.401 610.213 113.249C602.03 113.249 594.605 120.375 591.271 132.351C589.756 137.961 589.453 147.057 589.453 158.882V192.235H577.634V104.608H589.453V117.342V117.342Z" fill="white"/>
<path d="M650.368 77.7734C650.368 82.928 646.125 87.173 640.973 87.173C635.821 87.173 631.73 82.928 631.73 77.7734C631.73 72.6189 635.821 68.5255 640.822 68.5255C646.125 68.5255 650.368 72.6189 650.368 77.7734ZM635.67 104.608H646.883V192.235H635.67V104.608Z" fill="white"/>
<path d="M736.589 104.608H748.56V150.089C748.56 179.652 735.225 194.51 710.223 194.51C685.22 194.51 671.582 179.652 671.582 150.089V104.608H683.402V147.36C683.402 156.608 683.402 164.189 685.826 169.495C689.918 178.439 699.009 183.442 710.071 183.442C717.496 183.594 724.618 180.865 729.77 175.711C736.741 168.282 736.589 159.944 736.589 147.36V104.608Z" fill="white"/>
<path d="M845.994 192.235H834.781V147.36C834.781 140.538 834.175 134.929 834.023 130.987C833.569 121.436 825.84 113.249 814.324 113.249C806.293 113.401 798.717 117.039 793.868 123.407C787.655 131.442 786.443 141.902 786.443 155.092V192.235H775.229V104.608H786.443V119.616C794.171 108.398 803.869 102.333 816.446 102.333C829.78 102.333 839.327 109.307 844.176 123.407C851.904 109.459 863.42 102.333 876.3 102.333C894.484 102.333 906.151 115.372 906.151 140.235V192.235H894.938V144.328C894.938 137.961 894.181 132.806 893.878 129.471C893.423 121.739 885.998 113.097 874.179 113.097C863.268 113.097 853.722 119.616 849.328 130.835C846.6 137.961 846.146 145.693 846.146 153.728L845.994 192.235Z" fill="white"/>
</g>
<defs>
<clipPath id="clip0">
<rect width="906" height="255" fill="white"/>
</clipPath>
</defs>
</svg>
