<svg width="1000" height="162" viewBox="0 0 1000 162" fill="none" xmlns="http://www.w3.org/2000/svg">
<path d="M135.85 0C136.445 0 137.039 0.594737 137.039 1.18947V29.7366C137.039 30.3314 136.445 30.9261 135.85 30.9261H32.1046C31.5101 30.9261 30.9156 31.5208 30.9156 32.1156V157.901C30.9156 158.496 30.321 159.091 29.7265 159.091H1.18906C0.594531 159.091 0 158.496 0 157.901V1.18947C0 0.594737 0.594531 0 1.18906 0H135.85ZM67.7765 64.2311C66.8847 63.339 65.9929 64.2311 65.9929 65.1232V153.144C65.9929 154.63 66.8847 154.928 67.7765 153.738L112.961 111.81C113.555 111.215 113.555 110.323 112.961 109.728L67.7765 64.2311Z" fill="white"/>
<path d="M227.111 91.8862H179.845V108.836H219.084C220.273 108.836 220.868 109.431 220.868 110.323C220.868 121.325 220.868 125.191 220.868 127.57C220.868 128.76 220.273 129.057 219.084 129.057H179.845C179.845 129.057 179.845 147.791 179.845 157.009C179.845 158.496 179.845 158.794 178.656 158.794H157.848C156.956 158.794 156.956 158.794 156.956 157.009C156.956 132.625 156.956 101.997 156.956 73.7468C156.956 72.26 156.956 71.9626 157.848 71.9626H227.111C228.002 71.9626 228.002 73.1521 228.002 73.1521V90.3993C228.3 90.9941 228.3 91.8862 227.111 91.8862ZM327.289 115.973C327.289 90.9941 307.669 70.4758 281.807 70.4758C255.945 70.4758 236.326 90.6967 236.326 115.973C236.326 140.952 255.945 161.172 281.807 161.172C307.669 161.172 327.289 140.952 327.289 115.973ZM303.508 115.973C303.508 129.057 295.482 139.465 282.105 139.465C268.43 139.465 260.701 129.354 260.701 115.973C260.701 102.889 268.43 92.4809 282.105 92.4809C295.482 92.1835 303.508 102.591 303.508 115.973ZM417.36 155.523C409.929 143.628 402.794 130.544 399.227 125.489C406.956 121.92 411.118 113.594 411.118 101.699C411.118 85.9388 400.713 72.5574 381.094 72.5574H341.558C341.26 72.5574 340.666 72.5574 340.666 73.7468C340.666 104.376 340.666 125.191 340.666 158.199C340.666 159.388 340.666 159.388 341.558 159.388C349.287 159.388 354.34 159.388 362.366 159.388C363.258 159.388 363.258 159.388 363.258 158.199C363.258 148.088 363.258 134.112 363.258 134.112L377.824 133.815C377.824 133.815 387.039 148.386 391.498 156.712C392.687 159.091 393.282 159.388 394.174 159.388H416.766C418.549 158.794 418.847 157.901 417.36 155.523ZM387.039 103.186C387.039 110.62 383.175 115.675 376.338 115.973L363.555 116.27V91.2914H376.338C383.472 91.2914 387.039 96.3467 387.039 103.186ZM468.49 161.47C492.568 161.47 507.134 144.817 510.107 129.057C510.404 127.57 510.107 127.273 509.512 127.273H488.704C487.812 127.273 487.515 127.867 487.515 128.165C483.65 135.896 477.705 139.465 469.084 139.465C456.302 139.465 448.276 129.354 448.276 115.675V115.973C448.276 102.294 456.599 92.1835 469.084 92.1835C478.002 92.1835 483.948 95.7519 487.515 103.483C487.515 103.781 487.812 104.376 488.704 104.376H509.512C510.107 104.376 510.404 104.078 510.107 102.591C506.837 86.8309 492.568 70.1784 468.49 70.1784C443.52 70.1784 423.9 89.5072 423.9 115.675C423.9 142.141 443.52 161.47 468.49 161.47ZM584.721 157.009C584.721 151.657 584.721 146.899 584.721 140.654C584.721 139.167 584.423 138.87 582.937 138.87H545.779V124.299H581.451C582.64 124.299 582.64 124.002 582.64 122.515C582.64 117.46 582.64 113.297 582.64 107.052C582.64 105.565 582.64 105.268 581.451 105.268H545.779V90.6967H582.342C583.234 90.6967 583.829 90.3993 583.829 89.2099C583.829 83.5599 583.829 79.9915 583.829 73.7468C583.829 72.26 583.829 71.9626 582.342 71.9626H524.673C523.484 71.9626 523.484 71.9626 523.484 73.1521C523.484 97.8335 523.484 134.41 523.484 156.712C523.484 158.199 523.484 158.496 524.97 158.496H583.532C584.721 158.794 584.721 158.794 584.721 157.009ZM681.629 105.565C681.629 85.9388 670.333 72.26 651.308 72.26H604.637C604.043 72.26 603.448 72.26 603.448 73.4495C603.448 104.078 603.448 124.894 603.448 157.901C603.448 159.091 603.448 159.091 604.637 159.091C612.069 159.091 617.42 159.091 625.446 159.091C626.338 159.091 626.635 159.091 626.635 157.901C626.635 147.791 626.635 136.788 626.635 136.788C626.635 136.788 649.524 137.383 653.092 136.788C669.441 134.707 681.629 126.381 681.629 105.565ZM658.145 104.673C658.145 111.81 654.578 117.46 645.66 118.054H626.635V91.2914H645.363C653.092 91.2914 658.145 96.0493 658.145 104.673ZM782.997 115.973C782.997 90.9941 763.377 70.4758 737.515 70.4758C711.653 70.4758 692.033 90.6967 692.033 115.973C692.033 140.952 711.653 161.172 737.515 161.172C763.377 161.172 782.997 140.952 782.997 115.973ZM758.918 115.973C758.918 129.057 750.892 139.465 737.515 139.465C723.841 139.465 716.112 129.354 716.112 115.973C716.112 102.889 723.841 92.4809 737.515 92.4809C751.189 92.1835 758.918 102.591 758.918 115.973ZM819.263 157.901C819.263 137.681 819.263 93.373 819.263 73.4495C819.263 72.5574 819.263 72.26 818.074 72.26C809.75 72.26 804.994 72.26 796.968 72.26C795.779 72.26 795.779 72.26 795.779 73.4495C795.779 104.078 795.779 124.894 795.779 157.901C795.779 159.091 795.779 159.091 796.968 159.091C804.994 159.091 809.75 159.091 818.074 159.091C819.263 158.794 819.263 158.794 819.263 157.901ZM1000 93.9677C1000 86.8309 1000 82.0731 1000 73.4495C1000 72.5574 1000 72.26 999.108 72.26H924.792C923.9 72.26 923.9 72.5574 923.9 73.4495C923.9 82.0731 923.9 86.8309 923.9 93.9677C923.9 94.8598 923.9 94.8598 924.792 94.8598L950.654 94.5625C950.654 94.5625 950.654 141.844 950.654 157.604C950.654 158.794 950.654 158.794 951.843 158.794C959.869 158.794 964.328 158.794 972.949 158.794C973.841 158.794 974.138 158.794 974.138 157.604C974.138 147.494 974.138 94.5625 974.138 94.5625L999.406 94.8598C999.703 94.8598 1000 94.8598 1000 93.9677ZM910.523 155.82V143.628C910.523 120.433 910.523 94.5625 910.523 73.7468C910.523 72.5574 910.523 72.26 909.334 72.26C901.308 72.26 897.444 72.26 890.012 72.26C889.12 72.26 889.12 72.26 889.12 73.7468V114.486C889.12 114.486 857.313 85.3441 842.152 73.4495C838.288 70.1784 837.991 73.7468 837.991 74.9363V75.2337V87.4257C837.991 112.702 837.991 129.949 837.991 157.604C837.991 158.199 838.288 158.794 839.18 158.794C846.909 158.794 850.476 158.794 858.502 158.794C859.691 158.794 859.691 158.794 859.691 157.604V120.136C859.691 120.136 885.85 142.141 905.173 156.712C909.929 161.172 910.523 158.199 910.523 155.82Z" fill="white"/>
</svg>
