<svg width="1001" height="130" viewBox="0 0 1001 130" fill="none" xmlns="http://www.w3.org/2000/svg">
<path d="M907.885 2.84838C908.797 1.90713 910.34 0.925808 911.318 0.665469C916.663 -0.762163 927.186 0.242042 929.453 2.39634C932.294 5.09423 932.451 5.89531 932.454 17.5594C932.454 17.5594 932.454 24.3147 932.485 26.2566C932.517 28.1985 933.92 30.4281 933.92 30.4281C936.427 33.8898 938.002 34.379 947.228 34.5564C957.508 34.7567 960.321 36.1357 961.313 41.4571C962.825 49.5593 959.238 52.5977 948.165 52.5977C940.117 52.5977 937.83 53.1098 935.232 55.4929C932.471 58.0249 932.454 58.1393 932.485 74.5326C932.548 105.002 935.043 110.154 950.083 110.875C959.243 111.313 962.647 114.815 961.273 122.388C960.821 124.883 960.409 125.455 957.14 128.17C956.068 129.06 937.419 129.211 936.295 128.342C935.935 128.064 933.994 127.552 931.98 127.203C929.965 126.854 927.978 126.385 927.567 126.162C927.155 125.936 925.714 125.272 924.368 124.685C917.514 121.713 910.758 115.59 907.908 109.78L906.228 106.358L905.974 82.584V82.5792C905.758 62.429 905.717 58.5657 903.776 56.4463C903.315 55.9436 902.748 55.5389 902.046 55.0383L900.346 53.825L864.556 53.6905C822.13 53.5303 810.151 53.8994 807.104 55.4615C801.508 58.3282 800.499 65.7151 805.212 69.2828C808.159 71.5115 810.514 71.8376 825.093 72.0379C841.682 72.2668 851.14 73.6572 855.23 76.4695C855.761 76.8357 856.539 77.1333 856.959 77.1333C858.171 77.1333 866.271 82.632 869.083 85.3671C873.402 89.5613 875.583 94.4163 875.64 99.9523C875.665 102.464 874.711 109.365 874.202 110.326C873.939 110.83 873.047 112.675 872.224 114.429C869.515 120.199 864.302 124.783 857.359 127.501L853.772 128.905H782.196L780.421 127.792C775.53 124.72 774.753 116.449 778.977 112.412C779.259 112.142 779.499 111.906 779.761 111.7C781.585 110.265 784.516 110.24 810.465 110.026L841.516 109.768L844.435 108.295C852.366 104.298 851.083 93.7383 842.385 91.398C840.828 90.9775 834.131 90.6456 822.395 90.4053C804.846 90.0448 797.73 89.3209 793.471 87.4556C791.536 86.6088 787.069 84.4487 785.628 83.662C781.553 81.4361 776.774 75.3022 775.51 70.6761C774.767 67.9553 774.387 58.6028 774.99 57.8389C775.242 57.5214 775.599 56.0451 775.785 54.5603C776.651 47.6768 782.59 41.0193 790.776 37.7607C798.364 34.7397 798.396 34.7395 851.101 34.4563L899.437 34.1959L901.472 32.8456C905.253 30.3422 905.616 28.969 905.942 15.943L906.228 4.55924L907.885 2.84838Z" fill="white"/>
<path d="M173.895 9.30677C174.639 5.68461 176.592 2.45507 179.664 1.20053C181.934 0.273569 189.382 0.72846 192.712 1.99872C202.793 5.84386 205.871 18.6495 197.722 22.838C195.187 24.1426 181.085 24.0053 178.435 22.652C174.463 20.6236 172.978 15.1051 173.752 10.1022C173.779 9.0372 173.832 8.6953 173.895 9.30677Z" fill="white"/>
<path d="M176.909 38.2729C177.624 37.1142 178.938 36.007 180.545 35.2059C186.178 32.3936 198.217 33.6181 201.741 37.3602L203.213 38.9223L203.344 81.3475C203.458 118.809 203.384 123.944 202.718 125.238C199.609 131.254 181.039 131.649 177.238 125.781L176.086 123.999L175.792 40.0839L176.909 38.2729Z" fill="white"/>
<path d="M5.78926 35.0257C4.6603 35.3261 3.21979 36.3274 1.98793 37.6635L0.0043703 39.8178V81.605C0.0043703 84.7743 0.00311537 87.7127 0.00194726 90.4377V90.4381C-0.0110835 120.899 -0.0127094 124.701 1.88092 126.473C2.151 126.726 2.45962 126.937 2.81227 127.179C3.03326 127.33 3.27155 127.494 3.52847 127.686C5.10903 128.874 5.37196 128.905 13.4862 128.905H21.8206L23.7355 127.44C23.8708 127.337 24.0011 127.239 24.1267 127.144C24.6537 126.747 25.097 126.413 25.4698 126.013C27.4421 123.897 27.4428 119.939 27.4475 95.0443C27.4477 93.9261 27.4479 92.7656 27.4483 91.5611L27.4597 61.0862L28.9602 59.0148C31.4897 55.5187 33.116 55.0753 43.4424 55.061C53.2087 55.0495 54.7778 55.3499 57.2787 57.6931C57.3684 57.7771 57.4554 57.8578 57.5399 57.9361L57.5431 57.9391C57.9346 58.3021 58.2706 58.6137 58.5591 58.9646C60.3081 61.0917 60.3078 64.6604 60.3056 89.8663L60.3055 92.6998C60.3055 93.9721 60.3053 95.1942 60.3051 96.3682C60.3012 120.701 60.3006 124.361 62.1259 126.282C62.449 126.622 62.8294 126.908 63.2772 127.244C63.3991 127.336 63.526 127.431 63.6581 127.532L65.453 128.905H82.6876L84.5397 127.492C84.6649 127.396 84.7858 127.305 84.9026 127.217L84.903 127.217C85.4294 126.821 85.8725 126.487 86.2456 126.088C88.2313 123.962 88.2321 119.979 88.2373 94.797L88.2374 94.6443C88.2376 93.6499 88.2378 92.6225 88.2381 91.5611L88.2496 61.0862L89.7501 59.0148C94.4517 52.5147 113.487 53.7135 118.86 60.8459C121.07 63.7783 121.244 66.0127 121.547 95.0458L121.833 122.528L123.056 124.7C126.512 130.825 143.063 131.357 147.802 125.498L149.285 123.661V92.0168C149.285 65.5873 149.285 60.7701 147.91 56.3853C147.604 55.4083 147.229 54.4526 146.771 53.2842L146.77 53.2836L146.77 53.2831L146.716 53.1441C142.328 41.9549 132.951 36.5048 115.445 34.9656C107.762 34.2904 8.34159 34.3448 5.78926 35.0257Z" fill="white"/>
<path d="M232.04 38.8365C232.82 37.3631 233.846 36.3446 235.347 35.5492L237.525 34.3963L350.779 34.7453L355.786 36.0156C369.248 39.4258 376.488 46.1376 379.326 57.8418C380.703 63.518 380.863 121.484 379.509 124.142C376.185 130.662 359.299 131.549 354.646 125.446L353.228 123.587L352.931 97.5377C352.768 83.2128 352.502 70.719 352.342 69.7749C352.179 68.8279 351.908 67.0684 351.733 65.8582C350.673 58.4455 345.866 55.4157 334.716 55.1297C326.013 54.9065 324.549 55.1411 322.314 57.1066C322.279 57.1373 322.245 57.1675 322.211 57.1971L322.145 57.254C322.069 57.3196 321.995 57.3827 321.923 57.4442C321.583 57.7353 321.288 57.9871 321.033 58.2739C319.4 60.1082 319.375 63.3764 319.19 87.543V87.5457L319.172 89.7716C319.167 90.4509 319.162 91.1455 319.156 91.8558C319.149 92.7872 319.142 93.6924 319.135 94.5721L319.119 96.7276V96.731C318.937 120.609 318.909 124.298 317.052 126.125C316.713 126.459 316.313 126.73 315.839 127.052L315.734 127.123C315.674 127.164 315.613 127.206 315.55 127.248C315.474 127.301 315.395 127.355 315.315 127.412C311.368 130.187 297.68 129.838 294.159 126.871L294.089 126.813L293.979 126.72L293.979 126.72C293.6 126.403 293.273 126.129 292.991 125.815C291.211 123.834 291.209 120.25 291.201 94.0566L291.201 92.1648C291.2 90.7593 291.2 89.4139 291.2 88.1258C291.198 64.2365 291.197 60.048 289.106 58.0104C288.661 57.5772 288.122 57.2412 287.468 56.8338L287.468 56.8336L287.468 56.8335L287.336 56.7513L287.247 56.6955C287.15 56.6352 287.052 56.5731 286.951 56.5086L284.593 55.0066L263.925 55.2956L262.116 56.6803C261.886 56.8562 261.671 57.012 261.47 57.1575L261.469 57.1584C261.03 57.4761 260.658 57.745 260.343 58.0689C258.603 59.8571 258.577 63.3179 258.411 85.8678L258.411 85.8982L258.406 86.6396C258.393 88.2714 258.381 90.0004 258.366 91.8329C258.353 93.5746 258.34 95.2249 258.328 96.7892C258.147 120.631 258.118 124.457 256.197 126.252C255.83 126.595 255.393 126.864 254.873 127.184L254.873 127.185L254.767 127.25L254.658 127.317C254.545 127.387 254.428 127.46 254.308 127.538C250.192 130.173 237.245 129.726 233.809 126.831C233.736 126.769 233.664 126.71 233.595 126.653L233.566 126.63L233.496 126.572L233.488 126.565L233.485 126.563C233.206 126.334 232.957 126.131 232.736 125.901C230.907 124.006 230.907 120.342 230.911 86.4502C230.911 84.9116 230.911 83.3108 230.911 81.645V40.9736L232.04 38.8365Z" fill="white"/>
<path fill-rule="evenodd" clip-rule="evenodd" d="M449.841 34.283C437.185 35.3595 427.241 39.1687 420.113 45.5922C420.113 45.5922 419.611 46.0358 418.928 46.7094C410.58 54.9491 406.476 67.1099 406.809 82.9737C407.094 96.6265 410.503 106.959 417.284 114.346C417.93 115.065 418.444 115.583 418.444 115.583L419.349 116.468C423.396 120.173 428.472 122.983 434.567 125.03C443.93 128.174 444.634 128.24 470.223 128.246L493.791 128.248L495.603 126.867C501.142 122.644 500.507 113.52 494.448 110.267C492.893 109.432 491.387 109.357 476.245 109.357C458.721 109.357 455.406 109.048 449.672 106.894C442.564 104.219 437.734 97.4444 440.312 93.7595C442.096 91.2075 442.187 91.199 466.664 91.199C490.155 91.199 493.471 90.9758 495.837 89.2249C500.645 85.6659 500.359 76.4908 495.334 73.1635L493.302 71.816L465.332 71.6815C456.106 71.6369 442.428 71.3049 437.172 71.1772L437.169 71.1772L437.092 71.1753C442.018 71.2427 436.959 71.1408 436.959 71.1408C435.71 69.8905 439.049 62.2718 442.021 59.5854C447.58 54.5558 451.013 53.9035 473.372 53.6059C493.414 53.3399 494.159 53.2283 497.066 50.0069C501.493 45.1032 499.213 35.9996 493.136 34.3088C491.027 33.7223 456.675 33.7022 449.841 34.283ZM437.092 71.1753L436.959 71.1408C436.971 71.1522 437.016 71.1638 437.092 71.1753Z" fill="white"/>
<path d="M572.165 34.997C565.52 35.6837 564.128 35.9211 559.326 37.1714C555.084 38.2785 547.945 41.1881 546.484 42.404C546.181 42.6558 544.887 43.6429 543.603 44.5984C518.932 62.9543 521.71 108.552 548.308 121.89C550.963 123.221 553.447 124.308 553.83 124.308C554.216 124.308 554.913 124.508 555.379 124.751C556.291 125.229 559.815 126.23 561.855 126.596C562.536 126.719 563.976 127.02 565.057 127.269C566.134 127.515 567.714 127.815 568.684 127.945C568.795 127.961 568.899 127.977 568.997 127.991L569.153 128.014C569.309 128.038 569.449 128.058 569.577 128.077L569.582 128.078C570.205 128.169 570.535 128.218 571.07 128.316C571.877 128.464 577.238 128.899 592.197 128.928L612.756 128.968L614.645 127.463C619.178 123.841 619.733 115.942 615.714 112.186C613.042 109.691 612.167 109.585 593.844 109.585C568.804 109.585 562.53 107.276 557.214 96.0928C549.108 79.0415 559.909 58.949 578.593 56.3169C579.776 56.151 581.074 55.8849 581.479 55.7304C582.751 55.2355 584.323 55.1468 598.391 54.7577L612.119 54.3772L614.325 52.898C620.093 49.0243 619.787 39.3772 613.791 35.9755L611.63 34.7481L593.735 34.6852C583.895 34.648 574.185 34.791 572.165 34.997Z" fill="white"/>
<path fill-rule="evenodd" clip-rule="evenodd" d="M656.746 53.0497C647.851 50.8096 647.934 37.6177 656.86 34.9198C658.804 34.3304 708.939 34.3533 713.817 34.9426C735.405 37.5547 744.988 44.833 748.672 61.4065C749.516 65.2002 749.593 67.9553 749.593 93.8241L749.593 96.898C749.596 119.907 749.597 123.82 747.651 125.956C747.253 126.394 746.772 126.757 746.194 127.194C746.073 127.285 745.949 127.379 745.82 127.478L743.956 128.905H709.59C685.116 128.905 675.03 128.751 674.538 128.362C674.161 128.061 672.823 127.681 671.571 127.518C669.185 127.206 664.126 125.592 661.911 124.436C661.196 124.064 660.433 123.758 660.21 123.755C658.041 123.741 649.252 116.306 646.58 112.229C640.22 102.516 643.43 85.9508 653.016 79.0301C660.707 73.4741 668.793 72.221 697.872 72.0808L698.664 72.077C715.066 71.9983 720.703 71.9712 721.867 69.673C722.477 68.4696 721.86 66.6436 720.921 63.8614L720.921 63.8606L720.834 63.6038C717.847 54.7434 713.263 53.6018 680.563 53.5875C666.707 53.5818 658.084 53.3873 656.746 53.0497ZM716.481 109.768C723.604 106.166 723.675 94.5565 716.596 91.3379C711.462 89.0062 679.323 90.4196 675.404 93.1489C669.982 96.9254 669.896 106.604 675.261 109.225C679.477 111.285 712.62 111.722 716.481 109.768Z" fill="white"/>
<path fill-rule="evenodd" clip-rule="evenodd" d="M983.633 46.8897H986.017L988.741 52.213H991.953V52.0732L988.81 46.1306C989.682 45.7378 990.33 45.2118 990.756 44.5526C991.188 43.8868 991.404 43.0578 991.404 42.0657C991.404 40.6674 990.939 39.5855 990.008 38.8198C989.076 38.054 987.753 37.6712 986.037 37.6712H980.64V52.213H983.633V46.8897ZM986.047 44.4627H983.633V40.0982H986.037C986.842 40.0982 987.437 40.2946 987.823 40.6874C988.215 41.0803 988.411 41.6196 988.411 42.3054C988.411 42.9779 988.205 43.5072 987.793 43.8934C987.38 44.2729 986.798 44.4627 986.047 44.4627Z" fill="white"/>
<path fill-rule="evenodd" clip-rule="evenodd" d="M1000.42 44.9633C1000.42 53.1141 993.821 59.7216 985.679 59.7216C977.538 59.7216 970.937 53.1141 970.937 44.9633C970.937 36.8126 977.538 30.2051 985.679 30.2051C993.821 30.2051 1000.42 36.8126 1000.42 44.9633ZM997.447 45.0281C997.447 51.4986 992.207 56.7441 985.744 56.7441C979.281 56.7441 974.041 51.4986 974.041 45.0281C974.041 38.5575 979.281 33.3121 985.744 33.3121C992.207 33.3121 997.447 38.5575 997.447 45.0281Z" fill="white"/>
</svg>
