<svg width="1000" height="187" viewBox="0 0 1000 187" fill="none" xmlns="http://www.w3.org/2000/svg">
<g clip-path="url(#clip0)">
<path d="M961.882 145.151V123.81H954.505C946.493 123.81 944.605 122.616 944.605 117.03V58.4188H961.94V38.5222H944.605V9.63054H914.904V38.5222H900.15V58.4188H914.904V115.566C914.904 137.697 920.182 145.672 944.836 145.672C947.995 145.672 953.696 145.267 961.921 145.074" fill="white"/>
<path d="M791.459 144.343H821.391V81.5514C821.391 67.5872 830.463 59.2279 844.37 59.2279C857.217 59.2279 861.705 66.0078 861.705 80.415V144.343H891.637V72.1713C891.637 47.8446 879.406 35.6908 854.752 35.6908C840.614 35.6908 829.25 40.8721 820.813 51.0997V38.5222H791.459V144.343Z" fill="white"/>
<path d="M773.104 1.00159H743.172V26.7151H773.104V1.00159Z" fill="white"/>
<path d="M773.104 38.4836H743.172V144.342H773.104V38.4836Z" fill="white"/>
<path d="M648.542 91.3168C648.542 70.1296 658.172 58.5729 674.891 58.5729C691.61 58.5729 701.028 70.1296 701.028 91.3168C701.028 112.504 691.475 124.215 674.872 124.215C658.269 124.215 648.523 112.446 648.523 91.3168H648.542ZM618.167 91.3168C618.167 126.603 639.662 147.925 674.872 147.925C710.081 147.925 731.577 126.603 731.577 91.3168C731.577 56.0305 710.081 34.6699 674.872 34.6699C639.662 34.6699 618.167 55.9919 618.167 91.2975" fill="white"/>
<path d="M578.778 92.1065C578.778 111.849 569.302 123.406 554.528 123.406C538.715 123.406 529.489 112.234 529.489 92.1065C529.489 70.38 538.137 59.2085 553.951 59.2085C569.764 59.2085 578.817 70.5726 578.817 92.1065H578.778ZM500.347 186.832H529.431V131.187C536.808 142.147 548.191 147.925 562.522 147.925C588.659 147.925 608.479 125.794 608.479 90.9123C608.479 57.0128 589.218 34.8818 562.098 34.8818C547.556 34.8818 537.444 40.4675 528.795 52.8331V38.5221H500.347V186.832Z" fill="white"/>
<path d="M439.578 144.343H468.874V58.4189H487.422V38.5222H468.662V31.1066C468.662 24.3267 471.397 23.1326 479.622 23.1326H487.422V0.597093C482.164 0.192611 477.541 0 473.111 0C450.133 0 439.597 8.78305 439.597 28.7183V38.5222H423.572V58.4189H439.597L439.578 144.343Z" fill="white"/>
<path d="M338.63 91.3168C338.63 70.1296 348.261 58.5729 364.979 58.5729C381.698 58.5729 391.117 70.1296 391.117 91.3168C391.117 112.504 381.64 124.215 364.979 124.215C348.318 124.215 338.63 112.446 338.63 91.3168ZM308.275 91.3168C308.275 126.603 329.77 147.925 364.979 147.925C400.189 147.925 421.684 126.603 421.684 91.3168C421.684 56.0305 400.169 34.6699 364.96 34.6699C329.751 34.6699 308.178 56.0305 308.178 91.3168" fill="white"/>
<path d="M218.383 91.3168C218.383 70.1296 228.014 58.5729 244.732 58.5729C261.451 58.5729 270.87 70.1296 270.87 91.3168C270.87 112.504 261.393 124.215 244.732 124.215C228.071 124.215 218.383 112.446 218.383 91.3168ZM188.027 91.3168C188.027 126.603 209.523 147.925 244.732 147.925C279.942 147.925 301.437 126.603 301.437 91.3168C301.437 56.0305 279.942 34.6699 244.732 34.6699C209.523 34.6699 188.027 56.0305 188.027 91.3168" fill="white"/>
<path d="M120.151 144.342H150.083V88.312C150.083 72.3638 158.519 64.3898 174.737 64.3898H184.637V35.6908C183.166 35.5269 181.686 35.4626 180.207 35.4981C165.877 35.4981 155.745 42.0662 147.945 56.6853V38.5221H120.151V144.342Z" fill="white"/>
<path d="M78.4121 92.1065C78.4121 111.849 68.9356 123.406 54.1623 123.406C38.3489 123.406 29.1228 112.234 29.1228 92.1065C29.1228 70.38 37.7711 59.2085 53.5845 59.2085C69.3979 59.2085 78.4506 70.5726 78.4506 92.1065H78.4121ZM0 186.832H29.0843V131.187C36.4613 142.147 47.8447 147.925 62.175 147.925C88.3123 147.925 108.132 125.794 108.132 90.9123C108.132 57.0128 88.8709 34.8818 61.7512 34.8818C47.2091 34.8818 37.097 40.4675 28.4487 52.8331V38.5221H0V186.832Z" fill="white"/>
<path d="M1000 135.598C1000.07 137.929 999.432 140.226 998.182 142.194C996.931 144.162 995.121 145.712 992.983 146.643C990.845 147.574 988.478 147.845 986.185 147.421C983.892 146.996 981.778 145.896 980.116 144.261C978.453 142.626 977.317 140.531 976.854 138.246C976.391 135.96 976.622 133.589 977.518 131.436C978.413 129.283 979.932 127.446 981.879 126.163C983.826 124.88 986.112 124.208 988.443 124.234C989.95 124.216 991.445 124.496 992.842 125.059C994.24 125.621 995.513 126.455 996.587 127.511C997.661 128.567 998.516 129.826 999.101 131.213C999.687 132.601 999.993 134.091 1000 135.598ZM979.545 135.598C979.506 136.784 979.707 137.967 980.137 139.073C980.567 140.18 981.216 141.188 982.045 142.038C982.875 142.887 983.868 143.56 984.964 144.015C986.06 144.471 987.237 144.7 988.424 144.689C989.591 144.685 990.744 144.446 991.817 143.987C992.889 143.528 993.858 142.858 994.667 142.017C995.475 141.177 996.107 140.182 996.523 139.092C996.94 138.003 997.133 136.841 997.092 135.675C997.147 134.488 996.962 133.303 996.546 132.19C996.13 131.077 995.493 130.06 994.673 129.2C993.852 128.341 992.866 127.657 991.774 127.189C990.682 126.722 989.506 126.481 988.318 126.481C987.13 126.481 985.955 126.722 984.862 127.189C983.77 127.657 982.784 128.341 981.964 129.2C981.144 130.06 980.506 131.077 980.091 132.19C979.675 133.303 979.489 134.488 979.545 135.675V135.598ZM986.556 141.569H983.917V130.205C985.36 129.95 986.824 129.834 988.289 129.858C989.658 129.746 991.03 130.034 992.238 130.686C992.6 130.993 992.889 131.377 993.082 131.811C993.276 132.244 993.369 132.716 993.355 133.19C993.307 133.827 993.051 134.431 992.627 134.907C992.202 135.384 991.632 135.708 991.005 135.829V135.964C991.56 136.191 992.044 136.562 992.407 137.04C992.769 137.518 992.997 138.084 993.066 138.68C993.167 139.682 993.44 140.66 993.875 141.569H991.025C990.584 140.696 990.278 139.76 990.119 138.795C989.907 137.543 989.214 136.985 987.769 136.985H986.517L986.556 141.569ZM986.556 135.116H987.808C989.272 135.116 990.447 134.635 990.447 133.46C990.447 132.285 989.676 131.726 988.02 131.726C987.528 131.714 987.037 131.759 986.556 131.861V135.116Z" fill="white"/>
</g>
<defs>
<clipPath id="clip0">
<rect width="1000" height="186.813" fill="white"/>
</clipPath>
</defs>
</svg>
