<svg width="1000" height="165" viewBox="0 0 1000 165" fill="none" xmlns="http://www.w3.org/2000/svg">
<g clip-path="url(#clip0)">
<path fill-rule="evenodd" clip-rule="evenodd" d="M106.789 0L154.255 70.1571L135.91 97.2092L70.1421 0H106.789ZM0 0H36.647L119.146 121.932L100.798 148.981L0 0Z" fill="white"/>
<path fill-rule="evenodd" clip-rule="evenodd" d="M204.397 140.714C209.619 148.323 208.045 156.585 200.371 161.775C192.482 167.124 184.303 165.614 179.014 157.899L136.683 96.2231L155.293 69.1697L204.397 140.714ZM107.86 157.899L101.064 147.997L119.677 120.947L133.242 140.714C138.464 148.323 136.883 156.585 129.216 161.775C121.327 167.124 113.152 165.614 107.86 157.899Z" fill="white"/>
<path fill-rule="evenodd" clip-rule="evenodd" d="M690.132 117.068C690.132 135.187 679.085 145.994 660.599 145.994H653.407C634.981 145.994 624.001 135.187 624.001 117.068C624.001 98.9688 634.981 88.1484 653.407 88.1484H660.599C679.085 88.1484 690.132 98.9688 690.132 117.068ZM661.725 69.2062C691.225 69.2062 710.294 87.9991 710.294 117.068C710.294 146.15 691.225 164.943 661.725 164.943H652.267C622.771 164.943 603.712 146.15 603.712 117.068C603.712 87.9991 622.771 69.2062 652.267 69.2062H661.725ZM868.85 69.2062C874.946 69.2062 878.875 73.1194 878.875 79.1768V154.972C878.875 161.027 874.946 164.943 868.85 164.943C862.592 164.943 858.716 161.119 858.716 154.972V79.1768C858.716 73.0298 862.592 69.2062 868.85 69.2062ZM361.078 85.1214C361.078 85.1214 309.677 160.333 308.987 161.066C306.881 163.718 304.132 165.026 301.222 164.883C298.36 165.033 295.677 163.768 293.567 161.163C292.774 160.339 241.393 85.0948 241.393 85.0948C237.91 80.0232 238.96 74.6827 244.126 71.1711C249.151 67.7524 254.62 68.778 258.036 73.7832L301.249 136.827L344.429 73.8031C347.905 68.7282 353.277 67.7391 358.449 71.2574C363.475 74.6794 364.504 80.1161 361.078 85.1214ZM970.97 107.612C988.603 107.612 1000 118.85 1000 136.269C1000 153.685 988.603 164.943 970.97 164.943H914.923C909.078 164.943 905.302 161.216 905.302 155.46C905.302 149.795 909.181 145.994 914.923 145.994H969.864C978.025 145.994 979.738 140.697 979.738 136.269C979.738 132.641 978.448 126.547 969.864 126.547H934.332C916.686 126.547 905.302 115.286 905.302 97.8735C905.302 80.4547 916.686 69.2062 934.332 69.2062H987.496C993.185 69.2062 997.014 73.0099 997.014 78.6756C997.014 84.348 993.185 88.1484 987.496 88.1484H935.452C927.297 88.1484 925.564 93.4458 925.564 97.8735C925.564 101.511 926.854 107.612 935.452 107.612H970.97ZM486.996 79.1768C486.996 73.0298 490.868 69.2062 497.13 69.2062H554.1C570.893 69.2062 581.751 80.8098 581.751 98.763C581.751 99.2078 581.717 99.6359 581.687 100.084C581.674 100.273 581.667 100.472 581.654 100.675C581.667 100.681 581.674 100.851 581.687 101.03C581.717 101.465 581.751 101.913 581.751 102.361C581.751 115.455 575.809 125.406 565.868 129.638L580.118 150.375C581.087 151.653 581.667 153.061 581.804 154.461C582.407 159.991 579.298 164.19 574.039 164.873C573.732 164.903 573.386 164.943 573.063 164.943C570.34 164.943 567.784 163.473 566.057 160.904L546.322 132.11H507.158V154.972C507.158 161.027 503.222 164.943 497.14 164.943C490.882 164.943 486.996 161.119 486.996 154.972V79.1768ZM507.158 88.1484H551.361C561.489 88.1484 562.608 96.8445 562.635 100.545C562.608 104.007 561.605 111.913 553.014 112.836H507.158V88.1484ZM467.474 148.981C470.956 154.06 469.916 159.387 464.748 162.908C459.716 166.324 454.253 165.302 450.824 160.296L440.213 144.809H375.049L364.451 160.27C360.962 165.345 355.593 166.337 350.431 162.816C345.399 159.394 344.366 153.96 347.795 148.952C347.795 148.952 399.19 73.7434 399.886 73.0099C402.002 70.3579 404.742 69.0568 407.651 69.1796C410.514 69.0435 413.203 70.3081 415.306 72.9103C416.099 73.7368 467.474 148.981 467.474 148.981ZM386.613 127.928L407.631 97.2528L428.649 127.928H386.613ZM823.654 164.943C817.419 164.943 813.697 161.236 813.697 155.026V116.188C813.697 95.3775 798.907 87.9559 785.05 87.9559H777.785C763.935 87.9559 749.135 95.3775 749.135 116.188V155.026C749.135 161.236 745.409 164.943 739.174 164.943C732.945 164.943 729.066 161.153 729.066 155.026V116.188C729.066 87.6572 747.769 69.2062 776.699 69.2062H786.136C815.07 69.2062 833.762 87.6572 833.762 116.188V155.026C833.762 161.153 829.89 164.943 823.654 164.943Z" fill="white"/>
</g>
<defs>
<clipPath id="clip0">
<rect width="1000" height="164.943" fill="white"/>
</clipPath>
</defs>
</svg>
